<svg width="314" height="36" viewBox="0 0 314 36" fill="none" xmlns="http://www.w3.org/2000/svg">
<line y1="-0.5" x2="57" y2="-0.5" transform="matrix(1 0 0 -1 0 18)" stroke="black"/>
<line x1="259" y1="18.5" x2="314" y2="18.5" stroke="black"/>
<path d="M78.5981 18.7925C78.5981 19.2905 78.5322 19.7715 78.4004 20.2354C78.2734 20.6943 78.0928 21.1265 77.8584 21.5317C77.624 21.9321 77.3408 22.2983 77.0088 22.6304C76.6768 22.9624 76.3105 23.248 75.9102 23.4873C75.5098 23.7217 75.0776 23.9023 74.6138 24.0293C74.1499 24.1611 73.6689 24.2271 73.1709 24.2271C72.6729 24.2271 72.1919 24.1611 71.728 24.0293C71.269 23.9023 70.8369 23.7217 70.4316 23.4873C70.0312 23.248 69.665 22.9624 69.333 22.6304C69.001 22.2983 68.7153 21.9321 68.4761 21.5317C68.2417 21.1265 68.0586 20.6943 67.9268 20.2354C67.7998 19.7715 67.7363 19.2905 67.7363 18.7925C67.7363 18.2944 67.7998 17.8135 67.9268 17.3496C68.0586 16.8857 68.2417 16.4536 68.4761 16.0532C68.7153 15.6528 69.001 15.2866 69.333 14.9546C69.665 14.6226 70.0312 14.3394 70.4316 14.105C70.8369 13.8706 71.269 13.6899 71.728 13.563C72.1919 13.4312 72.6729 13.3652 73.1709 13.3652C73.6689 13.3652 74.1499 13.4312 74.6138 13.563C75.0776 13.6899 75.5098 13.8706 75.9102 14.105C76.3105 14.3394 76.6768 14.6226 77.0088 14.9546C77.3408 15.2866 77.624 15.6528 77.8584 16.0532C78.0928 16.4536 78.2734 16.8857 78.4004 17.3496C78.5322 17.8135 78.5981 18.2944 78.5981 18.7925ZM76.5107 18.7925C76.5107 18.3335 76.4229 17.9014 76.2471 17.4961C76.0713 17.0859 75.832 16.7319 75.5293 16.4341C75.2314 16.1313 74.8774 15.8921 74.4673 15.7163C74.062 15.5405 73.6299 15.4526 73.1709 15.4526C72.707 15.4526 72.2725 15.5405 71.8672 15.7163C71.4619 15.8921 71.1079 16.1313 70.8052 16.4341C70.5024 16.7319 70.2632 17.0859 70.0874 17.4961C69.9116 17.9014 69.8237 18.3335 69.8237 18.7925C69.8237 19.2515 69.9116 19.6836 70.0874 20.0889C70.2632 20.4893 70.5024 20.8408 70.8052 21.1436C71.1079 21.4463 71.4619 21.6855 71.8672 21.8613C72.2725 22.0371 72.707 22.125 73.1709 22.125C73.6299 22.125 74.062 22.0371 74.4673 21.8613C74.8774 21.6855 75.2314 21.4463 75.5293 21.1436C75.832 20.8408 76.0713 20.4893 76.2471 20.0889C76.4229 19.6836 76.5107 19.2515 76.5107 18.7925ZM81.7695 24H79.77V16.1558H80.2534L80.9126 17.0859C81.2349 16.793 81.6011 16.5684 82.0112 16.4121C82.4214 16.251 82.8462 16.1704 83.2856 16.1704H85.0508V18.1626H83.2856C83.0757 18.1626 82.8779 18.2017 82.6924 18.2798C82.5068 18.3579 82.3457 18.4653 82.209 18.6021C82.0723 18.7388 81.9648 18.8999 81.8867 19.0854C81.8086 19.271 81.7695 19.4688 81.7695 19.6787V24ZM92.5435 14.0244C92.5435 14.21 92.5068 14.3833 92.4336 14.5444C92.3652 14.7056 92.27 14.8472 92.1479 14.9692C92.0259 15.0864 91.8818 15.1816 91.7158 15.2549C91.5547 15.3232 91.3813 15.3574 91.1958 15.3574C91.0103 15.3574 90.8345 15.3232 90.6685 15.2549C90.5073 15.1816 90.3657 15.0864 90.2437 14.9692C90.1265 14.8472 90.0312 14.7056 89.958 14.5444C89.8896 14.3833 89.8555 14.21 89.8555 14.0244C89.8555 13.8438 89.8896 13.6729 89.958 13.5117C90.0312 13.3457 90.1265 13.2041 90.2437 13.0869C90.3657 12.9648 90.5073 12.8696 90.6685 12.8013C90.8345 12.728 91.0103 12.6914 91.1958 12.6914C91.3813 12.6914 91.5547 12.728 91.7158 12.8013C91.8818 12.8696 92.0259 12.9648 92.1479 13.0869C92.27 13.2041 92.3652 13.3457 92.4336 13.5117C92.5068 13.6729 92.5435 13.8438 92.5435 14.0244ZM92.1992 24H90.1851V16.1558H92.1992V24ZM96.2715 24H94.272V18.1479H93.2979V16.1558H94.272V15.7822C94.272 15.2988 94.3623 14.8447 94.543 14.4199C94.7285 13.9951 94.98 13.6265 95.2974 13.314C95.6196 12.9966 95.9932 12.7476 96.418 12.5669C96.8428 12.3813 97.2969 12.2886 97.7803 12.2886H99.2817V14.2808H97.7803C97.5654 14.2808 97.3652 14.3198 97.1797 14.3979C96.999 14.4712 96.8403 14.5762 96.7036 14.7129C96.5718 14.8447 96.4668 15.0034 96.3887 15.189C96.3105 15.3696 96.2715 15.5674 96.2715 15.7822V16.1558H98.7251V18.1479H96.2715V24ZM105.771 26.9883V24.9741L106.884 24.9888C107.08 24.9888 107.268 24.957 107.448 24.8936C107.629 24.8301 107.795 24.7422 107.946 24.6299C108.103 24.5176 108.239 24.3833 108.356 24.2271C108.474 24.0757 108.569 23.9097 108.642 23.729C108.422 23.8218 108.198 23.9146 107.968 24.0073C107.744 24.1001 107.517 24.1465 107.287 24.1465C106.804 24.1465 106.35 24.061 105.925 23.8901C105.5 23.7192 105.126 23.4775 104.804 23.165C104.487 22.8477 104.235 22.4644 104.05 22.0151C103.869 21.561 103.779 21.0532 103.779 20.4917V16.1558H105.771V20.4917C105.771 20.77 105.81 21.0142 105.888 21.2241C105.971 21.4292 106.081 21.6025 106.218 21.7441C106.354 21.8809 106.513 21.9834 106.694 22.0518C106.879 22.1201 107.077 22.1543 107.287 22.1543C107.492 22.1543 107.685 22.1079 107.866 22.0151C108.051 21.9175 108.212 21.7905 108.349 21.6343C108.486 21.478 108.593 21.3022 108.671 21.1069C108.75 20.9067 108.789 20.7017 108.789 20.4917V16.1558H110.803V23.0112C110.798 23.563 110.69 24.0806 110.48 24.564C110.271 25.0474 109.982 25.4697 109.616 25.8311C109.255 26.1924 108.833 26.478 108.349 26.688C107.866 26.8979 107.348 27.0029 106.796 27.0029L105.771 26.9883ZM119.914 20.0083C119.914 20.5942 119.809 21.1411 119.599 21.6489C119.389 22.1519 119.104 22.5889 118.742 22.96C118.381 23.3262 117.956 23.6167 117.468 23.8315C116.984 24.0415 116.464 24.1465 115.908 24.1465C115.356 24.1465 114.836 24.0415 114.348 23.8315C113.864 23.6167 113.439 23.3262 113.073 22.96C112.712 22.5889 112.426 22.1519 112.216 21.6489C112.006 21.1411 111.901 20.5942 111.901 20.0083C111.901 19.4126 112.006 18.8608 112.216 18.353C112.426 17.8452 112.712 17.4082 113.073 17.042C113.439 16.6709 113.864 16.3804 114.348 16.1704C114.836 15.9604 115.356 15.8555 115.908 15.8555C116.464 15.8555 116.984 15.9556 117.468 16.1558C117.956 16.3511 118.381 16.6318 118.742 16.998C119.104 17.3594 119.389 17.7964 119.599 18.3091C119.809 18.8169 119.914 19.3833 119.914 20.0083ZM117.9 20.0083C117.9 19.686 117.846 19.3955 117.739 19.1367C117.636 18.873 117.495 18.6484 117.314 18.4629C117.133 18.2725 116.921 18.1284 116.677 18.0308C116.438 17.9282 116.181 17.877 115.908 17.877C115.634 17.877 115.375 17.9282 115.131 18.0308C114.892 18.1284 114.682 18.2725 114.501 18.4629C114.326 18.6484 114.187 18.873 114.084 19.1367C113.981 19.3955 113.93 19.686 113.93 20.0083C113.93 20.311 113.981 20.5918 114.084 20.8506C114.187 21.1094 114.326 21.334 114.501 21.5244C114.682 21.7148 114.892 21.8662 115.131 21.9785C115.375 22.0859 115.634 22.1396 115.908 22.1396C116.181 22.1396 116.438 22.0884 116.677 21.9858C116.921 21.8833 117.133 21.7393 117.314 21.5537C117.495 21.3682 117.636 21.1436 117.739 20.8799C117.846 20.6162 117.9 20.3257 117.9 20.0083ZM126.784 23.0845C126.623 23.231 126.45 23.3701 126.264 23.502C126.083 23.6289 125.893 23.7412 125.693 23.8389C125.493 23.9316 125.285 24.0049 125.07 24.0586C124.86 24.1172 124.646 24.1465 124.426 24.1465C123.942 24.1465 123.488 24.061 123.063 23.8901C122.639 23.7192 122.265 23.4775 121.943 23.165C121.625 22.8477 121.374 22.4644 121.188 22.0151C121.008 21.561 120.917 21.0532 120.917 20.4917V16.1558H122.91V20.4917C122.91 20.7554 122.949 20.9922 123.027 21.2021C123.11 21.4072 123.22 21.5806 123.356 21.7222C123.493 21.8638 123.652 21.9712 123.833 22.0444C124.018 22.1177 124.216 22.1543 124.426 22.1543C124.631 22.1543 124.824 22.1079 125.004 22.0151C125.19 21.9175 125.351 21.7905 125.488 21.6343C125.625 21.478 125.732 21.3022 125.81 21.1069C125.888 20.9067 125.927 20.7017 125.927 20.4917V16.1558H127.927V24H127.443L126.784 23.0845ZM135.661 24H133.662V13.0356H135.661V16.5C135.9 16.3193 136.147 16.1924 136.401 16.1191C136.655 16.041 136.914 16.002 137.177 16.002C137.661 16.002 138.115 16.0947 138.54 16.2803C138.964 16.4609 139.333 16.7124 139.646 17.0347C139.963 17.3521 140.212 17.7256 140.393 18.1553C140.578 18.5801 140.671 19.0342 140.671 19.5176V24H138.657V19.5176H138.671C138.671 19.3125 138.632 19.1196 138.554 18.939C138.476 18.7534 138.369 18.5923 138.232 18.4556C138.095 18.3188 137.937 18.2114 137.756 18.1333C137.575 18.0552 137.382 18.0161 137.177 18.0161C136.967 18.0161 136.77 18.0552 136.584 18.1333C136.398 18.2114 136.237 18.3188 136.101 18.4556C135.964 18.5923 135.856 18.7534 135.778 18.939C135.7 19.1196 135.661 19.3125 135.661 19.5176V24ZM149.694 24H149.211L148.435 22.9233C148.244 23.0942 148.042 23.2554 147.827 23.4067C147.617 23.5532 147.395 23.6826 147.16 23.7949C146.926 23.9023 146.684 23.9878 146.435 24.0513C146.191 24.1147 145.942 24.1465 145.688 24.1465C145.136 24.1465 144.616 24.0537 144.128 23.8682C143.645 23.6826 143.22 23.4141 142.854 23.0625C142.492 22.7061 142.207 22.2715 141.997 21.7588C141.787 21.2461 141.682 20.6626 141.682 20.0083C141.682 19.3979 141.787 18.8389 141.997 18.3311C142.207 17.8184 142.492 17.3789 142.854 17.0127C143.22 16.6465 143.645 16.3633 144.128 16.1631C144.616 15.958 145.136 15.8555 145.688 15.8555C145.942 15.8555 146.193 15.8872 146.442 15.9507C146.691 16.0142 146.933 16.1021 147.167 16.2144C147.402 16.3267 147.624 16.4585 147.834 16.6099C148.049 16.7612 148.249 16.9248 148.435 17.1006L149.211 16.1704H149.694V24ZM147.68 20.0083C147.68 19.7349 147.626 19.4712 147.519 19.2173C147.417 18.9585 147.275 18.7314 147.094 18.5361C146.914 18.3359 146.701 18.1772 146.457 18.0601C146.218 17.938 145.961 17.877 145.688 17.877C145.415 17.877 145.156 17.9233 144.912 18.0161C144.672 18.1089 144.462 18.2456 144.282 18.4263C144.106 18.6069 143.967 18.8315 143.864 19.1001C143.762 19.3638 143.71 19.6665 143.71 20.0083C143.71 20.3501 143.762 20.6553 143.864 20.9238C143.967 21.1875 144.106 21.4097 144.282 21.5903C144.462 21.771 144.672 21.9077 144.912 22.0005C145.156 22.0933 145.415 22.1396 145.688 22.1396C145.961 22.1396 146.218 22.0811 146.457 21.9639C146.701 21.8418 146.914 21.6831 147.094 21.4878C147.275 21.2876 147.417 21.0605 147.519 20.8066C147.626 20.5479 147.68 20.2817 147.68 20.0083ZM153.452 24L150.463 16.1558H152.741L154.455 21.0483L156.162 16.1558H158.447L155.458 24H153.452ZM162.094 22.0811C162.172 22.1055 162.25 22.1226 162.329 22.1323C162.407 22.1372 162.485 22.1396 162.563 22.1396C162.758 22.1396 162.946 22.1128 163.127 22.0591C163.308 22.0054 163.476 21.9297 163.632 21.832C163.793 21.7295 163.935 21.6074 164.057 21.4658C164.184 21.3193 164.287 21.1582 164.365 20.9824L165.83 22.4546C165.644 22.7183 165.429 22.9551 165.185 23.165C164.946 23.375 164.685 23.5532 164.401 23.6997C164.123 23.8462 163.828 23.9561 163.515 24.0293C163.208 24.1074 162.89 24.1465 162.563 24.1465C162.011 24.1465 161.491 24.0439 161.003 23.8389C160.52 23.6338 160.095 23.3481 159.729 22.9819C159.367 22.6157 159.082 22.1812 158.872 21.6782C158.662 21.1704 158.557 20.6138 158.557 20.0083C158.557 19.3882 158.662 18.8218 158.872 18.3091C159.082 17.7964 159.367 17.3594 159.729 16.998C160.095 16.6367 160.52 16.356 161.003 16.1558C161.491 15.9556 162.011 15.8555 162.563 15.8555C162.89 15.8555 163.21 15.8945 163.522 15.9727C163.835 16.0508 164.13 16.1631 164.409 16.3096C164.692 16.4561 164.956 16.6367 165.2 16.8516C165.444 17.0615 165.659 17.2983 165.844 17.562L162.094 22.0811ZM163.12 17.9575C163.027 17.9233 162.934 17.9014 162.841 17.8916C162.753 17.8818 162.661 17.877 162.563 17.877C162.29 17.877 162.031 17.9282 161.787 18.0308C161.547 18.1284 161.337 18.27 161.157 18.4556C160.981 18.6411 160.842 18.8657 160.739 19.1294C160.637 19.3882 160.585 19.6812 160.585 20.0083C160.585 20.0815 160.588 20.1646 160.593 20.2573C160.603 20.3501 160.615 20.4453 160.629 20.543C160.649 20.6357 160.671 20.7261 160.695 20.814C160.72 20.9019 160.751 20.98 160.791 21.0483L163.12 17.9575ZM178.654 24H178.171L177.395 22.9233C177.204 23.0942 177.001 23.2554 176.787 23.4067C176.577 23.5532 176.354 23.6826 176.12 23.7949C175.886 23.9023 175.644 23.9878 175.395 24.0513C175.151 24.1147 174.902 24.1465 174.648 24.1465C174.096 24.1465 173.576 24.0537 173.088 23.8682C172.604 23.6826 172.18 23.4141 171.813 23.0625C171.452 22.7061 171.167 22.2715 170.957 21.7588C170.747 21.2461 170.642 20.6626 170.642 20.0083C170.642 19.3979 170.747 18.8389 170.957 18.3311C171.167 17.8184 171.452 17.3789 171.813 17.0127C172.18 16.6465 172.604 16.3633 173.088 16.1631C173.576 15.958 174.096 15.8555 174.648 15.8555C174.902 15.8555 175.153 15.8872 175.402 15.9507C175.651 16.0142 175.893 16.1021 176.127 16.2144C176.362 16.3267 176.584 16.4585 176.794 16.6099C177.009 16.7612 177.209 16.9248 177.395 17.1006L178.171 16.1704H178.654V24ZM176.64 20.0083C176.64 19.7349 176.586 19.4712 176.479 19.2173C176.376 18.9585 176.235 18.7314 176.054 18.5361C175.874 18.3359 175.661 18.1772 175.417 18.0601C175.178 17.938 174.921 17.877 174.648 17.877C174.375 17.877 174.116 17.9233 173.872 18.0161C173.632 18.1089 173.422 18.2456 173.242 18.4263C173.066 18.6069 172.927 18.8315 172.824 19.1001C172.722 19.3638 172.67 19.6665 172.67 20.0083C172.67 20.3501 172.722 20.6553 172.824 20.9238C172.927 21.1875 173.066 21.4097 173.242 21.5903C173.422 21.771 173.632 21.9077 173.872 22.0005C174.116 22.0933 174.375 22.1396 174.648 22.1396C174.921 22.1396 175.178 22.0811 175.417 21.9639C175.661 21.8418 175.874 21.6831 176.054 21.4878C176.235 21.2876 176.376 21.0605 176.479 20.8066C176.586 20.5479 176.64 20.2817 176.64 20.0083ZM182.185 24H180.185V16.1558H180.668L181.328 16.9175C181.65 16.6245 182.014 16.3999 182.419 16.2437C182.829 16.0825 183.256 16.002 183.701 16.002C184.179 16.002 184.631 16.0947 185.056 16.2803C185.48 16.4609 185.852 16.7124 186.169 17.0347C186.486 17.3521 186.735 17.7256 186.916 18.1553C187.102 18.5801 187.194 19.0342 187.194 19.5176V24H185.195V19.5176C185.195 19.3125 185.156 19.1196 185.078 18.939C185 18.7534 184.892 18.5923 184.755 18.4556C184.619 18.3188 184.46 18.2114 184.279 18.1333C184.099 18.0552 183.906 18.0161 183.701 18.0161C183.491 18.0161 183.293 18.0552 183.107 18.1333C182.922 18.2114 182.761 18.3188 182.624 18.4556C182.487 18.5923 182.38 18.7534 182.302 18.939C182.224 19.1196 182.185 19.3125 182.185 19.5176V24ZM200.422 24H199.938L199.162 22.9233C198.972 23.0942 198.769 23.2554 198.554 23.4067C198.344 23.5532 198.122 23.6826 197.888 23.7949C197.653 23.9023 197.412 23.9878 197.163 24.0513C196.918 24.1147 196.669 24.1465 196.416 24.1465C195.864 24.1465 195.344 24.0537 194.855 23.8682C194.372 23.6826 193.947 23.4141 193.581 23.0625C193.22 22.7061 192.934 22.2715 192.724 21.7588C192.514 21.2461 192.409 20.6626 192.409 20.0083C192.409 19.3979 192.514 18.8389 192.724 18.3311C192.934 17.8184 193.22 17.3789 193.581 17.0127C193.947 16.6465 194.372 16.3633 194.855 16.1631C195.344 15.958 195.864 15.8555 196.416 15.8555C196.669 15.8555 196.921 15.8872 197.17 15.9507C197.419 16.0142 197.661 16.1021 197.895 16.2144C198.129 16.3267 198.352 16.4585 198.562 16.6099C198.776 16.7612 198.977 16.9248 199.162 17.1006L199.938 16.1704H200.422V24ZM198.408 20.0083C198.408 19.7349 198.354 19.4712 198.247 19.2173C198.144 18.9585 198.002 18.7314 197.822 18.5361C197.641 18.3359 197.429 18.1772 197.185 18.0601C196.945 17.938 196.689 17.877 196.416 17.877C196.142 17.877 195.883 17.9233 195.639 18.0161C195.4 18.1089 195.19 18.2456 195.009 18.4263C194.833 18.6069 194.694 18.8315 194.592 19.1001C194.489 19.3638 194.438 19.6665 194.438 20.0083C194.438 20.3501 194.489 20.6553 194.592 20.9238C194.694 21.1875 194.833 21.4097 195.009 21.5903C195.19 21.771 195.4 21.9077 195.639 22.0005C195.883 22.0933 196.142 22.1396 196.416 22.1396C196.689 22.1396 196.945 22.0811 197.185 21.9639C197.429 21.8418 197.641 21.6831 197.822 21.4878C198.002 21.2876 198.144 21.0605 198.247 20.8066C198.354 20.5479 198.408 20.2817 198.408 20.0083ZM208.808 17.7158L207.343 19.188C207.27 18.9829 207.17 18.7998 207.043 18.6387C206.916 18.4727 206.772 18.3335 206.611 18.2212C206.455 18.1089 206.284 18.0234 206.098 17.9648C205.913 17.9062 205.722 17.877 205.527 17.877C205.253 17.877 204.995 17.9331 204.75 18.0454C204.511 18.1577 204.301 18.3164 204.121 18.5215C203.945 18.7217 203.806 18.9609 203.703 19.2393C203.601 19.5176 203.549 19.8252 203.549 20.1621C203.549 20.4355 203.601 20.6919 203.703 20.9312C203.806 21.1704 203.945 21.3804 204.121 21.561C204.301 21.7417 204.511 21.8833 204.75 21.9858C204.995 22.0884 205.253 22.1396 205.527 22.1396C205.722 22.1396 205.91 22.1128 206.091 22.0591C206.271 22.0054 206.44 21.9297 206.596 21.832C206.757 21.7295 206.899 21.6074 207.021 21.4658C207.148 21.3193 207.25 21.1582 207.329 20.9824L208.793 22.4546C208.608 22.7183 208.393 22.9551 208.149 23.165C207.91 23.375 207.648 23.5532 207.365 23.6997C207.087 23.8462 206.792 23.9561 206.479 24.0293C206.171 24.1074 205.854 24.1465 205.527 24.1465C204.975 24.1465 204.455 24.0439 203.967 23.8389C203.483 23.6289 203.059 23.3433 202.692 22.9819C202.331 22.6206 202.045 22.1982 201.835 21.7148C201.625 21.2314 201.521 20.7139 201.521 20.1621C201.521 19.5615 201.625 19 201.835 18.4775C202.045 17.9551 202.331 17.501 202.692 17.1152C203.059 16.7246 203.483 16.417 203.967 16.1924C204.455 15.9678 204.975 15.8555 205.527 15.8555C205.854 15.8555 206.174 15.897 206.486 15.98C206.804 16.063 207.104 16.1851 207.387 16.3462C207.675 16.5024 207.939 16.6953 208.178 16.9248C208.422 17.1543 208.632 17.418 208.808 17.7158ZM216.528 17.7158L215.063 19.188C214.99 18.9829 214.89 18.7998 214.763 18.6387C214.636 18.4727 214.492 18.3335 214.331 18.2212C214.174 18.1089 214.003 18.0234 213.818 17.9648C213.632 17.9062 213.442 17.877 213.247 17.877C212.973 17.877 212.714 17.9331 212.47 18.0454C212.231 18.1577 212.021 18.3164 211.84 18.5215C211.665 18.7217 211.525 18.9609 211.423 19.2393C211.32 19.5176 211.269 19.8252 211.269 20.1621C211.269 20.4355 211.32 20.6919 211.423 20.9312C211.525 21.1704 211.665 21.3804 211.84 21.561C212.021 21.7417 212.231 21.8833 212.47 21.9858C212.714 22.0884 212.973 22.1396 213.247 22.1396C213.442 22.1396 213.63 22.1128 213.811 22.0591C213.991 22.0054 214.16 21.9297 214.316 21.832C214.477 21.7295 214.619 21.6074 214.741 21.4658C214.868 21.3193 214.97 21.1582 215.048 20.9824L216.513 22.4546C216.328 22.7183 216.113 22.9551 215.869 23.165C215.629 23.375 215.368 23.5532 215.085 23.6997C214.807 23.8462 214.511 23.9561 214.199 24.0293C213.891 24.1074 213.574 24.1465 213.247 24.1465C212.695 24.1465 212.175 24.0439 211.687 23.8389C211.203 23.6289 210.778 23.3433 210.412 22.9819C210.051 22.6206 209.765 22.1982 209.555 21.7148C209.345 21.2314 209.24 20.7139 209.24 20.1621C209.24 19.5615 209.345 19 209.555 18.4775C209.765 17.9551 210.051 17.501 210.412 17.1152C210.778 16.7246 211.203 16.417 211.687 16.1924C212.175 15.9678 212.695 15.8555 213.247 15.8555C213.574 15.8555 213.894 15.897 214.206 15.98C214.523 16.063 214.824 16.1851 215.107 16.3462C215.395 16.5024 215.659 16.6953 215.898 16.9248C216.142 17.1543 216.352 17.418 216.528 17.7158ZM224.973 20.0083C224.973 20.5942 224.868 21.1411 224.658 21.6489C224.448 22.1519 224.162 22.5889 223.801 22.96C223.439 23.3262 223.015 23.6167 222.526 23.8315C222.043 24.0415 221.523 24.1465 220.966 24.1465C220.415 24.1465 219.895 24.0415 219.406 23.8315C218.923 23.6167 218.498 23.3262 218.132 22.96C217.771 22.5889 217.485 22.1519 217.275 21.6489C217.065 21.1411 216.96 20.5942 216.96 20.0083C216.96 19.4126 217.065 18.8608 217.275 18.353C217.485 17.8452 217.771 17.4082 218.132 17.042C218.498 16.6709 218.923 16.3804 219.406 16.1704C219.895 15.9604 220.415 15.8555 220.966 15.8555C221.523 15.8555 222.043 15.9556 222.526 16.1558C223.015 16.3511 223.439 16.6318 223.801 16.998C224.162 17.3594 224.448 17.7964 224.658 18.3091C224.868 18.8169 224.973 19.3833 224.973 20.0083ZM222.958 20.0083C222.958 19.686 222.905 19.3955 222.797 19.1367C222.695 18.873 222.553 18.6484 222.373 18.4629C222.192 18.2725 221.979 18.1284 221.735 18.0308C221.496 17.9282 221.24 17.877 220.966 17.877C220.693 17.877 220.434 17.9282 220.19 18.0308C219.951 18.1284 219.741 18.2725 219.56 18.4629C219.384 18.6484 219.245 18.873 219.143 19.1367C219.04 19.3955 218.989 19.686 218.989 20.0083C218.989 20.311 219.04 20.5918 219.143 20.8506C219.245 21.1094 219.384 21.334 219.56 21.5244C219.741 21.7148 219.951 21.8662 220.19 21.9785C220.434 22.0859 220.693 22.1396 220.966 22.1396C221.24 22.1396 221.496 22.0884 221.735 21.9858C221.979 21.8833 222.192 21.7393 222.373 21.5537C222.553 21.3682 222.695 21.1436 222.797 20.8799C222.905 20.6162 222.958 20.3257 222.958 20.0083ZM231.843 23.0845C231.682 23.231 231.508 23.3701 231.323 23.502C231.142 23.6289 230.952 23.7412 230.751 23.8389C230.551 23.9316 230.344 24.0049 230.129 24.0586C229.919 24.1172 229.704 24.1465 229.484 24.1465C229.001 24.1465 228.547 24.061 228.122 23.8901C227.697 23.7192 227.324 23.4775 227.001 23.165C226.684 22.8477 226.433 22.4644 226.247 22.0151C226.066 21.561 225.976 21.0532 225.976 20.4917V16.1558H227.968V20.4917C227.968 20.7554 228.007 20.9922 228.085 21.2021C228.168 21.4072 228.278 21.5806 228.415 21.7222C228.552 21.8638 228.71 21.9712 228.891 22.0444C229.077 22.1177 229.274 22.1543 229.484 22.1543C229.689 22.1543 229.882 22.1079 230.063 22.0151C230.249 21.9175 230.41 21.7905 230.546 21.6343C230.683 21.478 230.791 21.3022 230.869 21.1069C230.947 20.9067 230.986 20.7017 230.986 20.4917V16.1558H232.985V24H232.502L231.843 23.0845ZM236.516 24H234.516V16.1558H235L235.659 16.9175C235.981 16.6245 236.345 16.3999 236.75 16.2437C237.16 16.0825 237.587 16.002 238.032 16.002C238.51 16.002 238.962 16.0947 239.387 16.2803C239.812 16.4609 240.183 16.7124 240.5 17.0347C240.817 17.3521 241.066 17.7256 241.247 18.1553C241.433 18.5801 241.525 19.0342 241.525 19.5176V24H239.526V19.5176C239.526 19.3125 239.487 19.1196 239.409 18.939C239.331 18.7534 239.223 18.5923 239.086 18.4556C238.95 18.3188 238.791 18.2114 238.61 18.1333C238.43 18.0552 238.237 18.0161 238.032 18.0161C237.822 18.0161 237.624 18.0552 237.438 18.1333C237.253 18.2114 237.092 18.3188 236.955 18.4556C236.818 18.5923 236.711 18.7534 236.633 18.939C236.555 19.1196 236.516 19.3125 236.516 19.5176V24ZM246.784 24C246.301 24 245.847 23.9097 245.422 23.729C244.997 23.5435 244.624 23.292 244.301 22.9746C243.984 22.6523 243.732 22.2788 243.547 21.854C243.366 21.4292 243.276 20.9751 243.276 20.4917V18.1626H242.302V16.1704H243.276V13.0356H245.268V16.1704H248.3V18.1626H245.268V20.4917C245.268 20.7017 245.307 20.8994 245.385 21.085C245.463 21.2656 245.571 21.4243 245.708 21.561C245.844 21.6978 246.005 21.8076 246.191 21.8906C246.376 21.9688 246.574 22.0078 246.784 22.0078H248.3V24H246.784Z" fill="black"/>
</svg>
