<svg width="167" height="167" viewBox="0 0 167 167" fill="none" xmlns="http://www.w3.org/2000/svg">
<path d="M56.1051 61.53C56.1051 77.3653 68.9322 90.1924 84.7675 90.1924C100.603 90.1924 113.43 77.3653 113.43 61.53C113.43 45.6947 100.603 32.8676 84.7675 32.8676C68.9491 32.8507 56.1051 45.6947 56.1051 61.53Z" fill="black"/>
<path d="M83.5001 0.690002C37.9546 0.690002 0.690063 37.9545 0.690063 83.5C0.690063 110.574 13.7538 134.453 33.8141 149.748C34.1352 149.748 34.1352 150.069 34.4563 150.069C35.4196 150.711 36.6871 151.658 37.6335 152.3C45.9145 158.029 55.463 162.169 65.6537 164.4C66.2959 164.721 67.2423 164.721 67.8845 164.721C68.8478 165.042 69.7942 165.042 70.7575 165.364C72.3461 165.685 74.2558 165.685 75.8613 166.006C76.5035 166.006 76.8246 166.006 77.4499 166.006C79.3596 166.006 81.5904 166.327 83.5001 166.327C84.7676 166.327 86.3731 166.327 87.6406 166.327C88.2828 166.327 88.9081 166.327 89.5503 166.327C90.1925 166.327 90.8178 166.327 91.46 166.327C92.4233 166.327 93.3697 166.006 94.333 166.006C94.6541 166.006 94.9752 166.006 95.2963 166.006C96.5638 165.685 97.5271 165.685 98.4735 165.364H98.7946C137.327 158.029 166.31 124.263 166.31 84.1422C166.31 37.9545 129.046 0.690002 83.5001 0.690002ZM137.969 141.146C137.648 112.483 114.393 90.1924 85.7309 90.1924C56.7474 90.1924 33.1719 113.768 33.1719 142.751C33.1719 143.394 33.1719 144.34 33.1719 144.982C15.3424 130.313 3.86726 108.022 3.86726 83.1789C3.86726 39.222 39.5432 3.563 83.5001 3.563C127.457 3.563 163.133 39.222 163.133 83.1789C163.133 106.112 153.567 126.815 137.969 141.146Z" fill="black"/>
</svg>
